<?xml version="1.0" encoding="utf-8"?>
<!-- Generator: Adobe Illustrator 16.0.4, SVG Export Plug-In . SVG Version: 6.00 Build 0)  -->
<!DOCTYPE svg PUBLIC "-//W3C//DTD SVG 1.1//EN" "http://www.w3.org/Graphics/SVG/1.1/DTD/svg11.dtd">
<svg version="1.1" id="Laag_1" xmlns="http://www.w3.org/2000/svg" xmlns:xlink="http://www.w3.org/1999/xlink" x="0px" y="0px"
	 width="540px" height="262px" viewBox="0 0 540 262" enable-background="new 0 0 540 262" xml:space="preserve">
<g>
	<path d="M222.793,78.866v-9.874H89.352V1.991H78.93v76.875h143.798H222.793z M77.088,130.871c0,24.028,14.721,40.785,35.771,40.785
		c21.781,0,36.387-16.258,36.387-40.683c0-24.027-14.541-40.071-36.174-40.071C91.435,90.903,77.088,106.846,77.088,130.871z
		 M88.222,129.854c0-18.092,10.019-30.166,25.156-30.166c15.138,0,24.735,12.167,24.735,30.976c0,19.517-9.61,31.994-24.735,31.994
		C98.253,162.658,88.222,149.585,88.222,129.854z M62.982,159.907c3.361-5.425,4.398-10.934,4.398-22.619V92.824H56.941v44.464
		c0,10.436-1.116,15.333-4.394,19.536c-2.958,3.681-8.175,5.815-14.411,5.815c-6.241,0-11.134-2.036-14.319-5.815
		c-3.18-3.78-4.393-8.998-4.393-19.536V92.824H9.004v44.464c0,10.02,0.709,15.027,2.972,19.935
		c4.282,9.312,13.49,14.416,26.156,14.416c11.31,0,20.245-4.185,24.851-11.751V159.907z M58.135,78.866h9.097v-39.78H37.793v8.643
		h19.388v1.745c0,13.185-8.694,22.281-21.36,22.281c-14.717,0-24.734-12.573-24.734-31.184c0-19.388,9.804-31.78,25.041-31.78
		c10.731,0,18.083,5.819,19.828,15.836h11.31C65.52,9.906,52.951,0,36.192,0C14.415,0,0,16.046,0,40.267
		s13.897,40.489,34.349,40.489c10.425,0,18.713-3.991,23.818-11.453v9.514L58.135,78.866z M173.435,92.838h-14.545v76.875h9.926
		v-66.242l39.339,66.242h13.912V92.838h-9.92v65.422L173.37,92.838H173.435z"/>
	<path d="M302.77,150.604c-1.227,7.962-6.236,12.665-13.296,12.665c-9.805,0-16.045-8.369-16.045-21.665s6.027-21.263,16.045-21.263
		c7.269,0,12.472,4.699,13.296,12.167h9.921c-1.439-12.57-10.128-20.133-23.105-20.133c-15.943,0-26.578,11.749-26.578,29.23
		c0,17.888,10.324,29.744,25.851,29.744c13.3,0,22.184-7.773,23.832-20.744L302.77,150.604L302.77,150.604z M366.753,169.713
		c-1.421-6.139-1.823-12.064-1.727-23.198c0.192-17.771-0.306-21.78-3.231-25.965c-3.666-5.314-10.213-8.175-18.597-8.175
		c-6.851,0-12.926,2.037-16.966,5.721c-3.589,3.231-5.01,6.462-5.931,13.489h10.018c0.615-7.656,4.704-11.309,12.926-11.309
		c4.302,0,7.772,1.227,9.697,3.375c1.923,2.148,2.343,4.185,2.455,11.458c-6.236,0.5-9.921,0.903-12.926,1.421
		c-4.004,0.511-7.968,1.302-11.86,2.362c-8.177,2.55-12.36,7.559-12.36,15.026c0,10.111,8.176,16.962,20.132,16.962
		c7.866,0,13.186-2.453,18-8.175c0.402,3.067,0.499,3.972,1.018,6.943L366.753,169.713z M355.443,142.83v2.037
		c0,6.235-0.713,9.694-2.341,12.069c-2.863,4.185-7.465,6.332-13.395,6.332c-6.95,0-11.31-3.361-11.31-8.889
		c0-7.251,6.944-10.227,26.98-11.55H355.443z M389.132,100.513h-9.598v13.462h-10.226v7.657h10.226v32.929
		c0.098,5.412,0.5,7.754,1.842,10.207c2.599,3.986,7.094,6.314,11.842,6.143c2.824-0.06,5.63-0.4,8.39-1.017v-8.292
		c-1.755,0.552-3.578,0.828-5.417,0.823c-2.195,0.186-4.359-0.603-5.925-2.148c-0.926-1.324-1.134-2.55-1.134-8.786v-29.859h12.476
		v-7.657H389.21v-13.49L389.132,100.513z M409.278,114.002v55.709h9.597v-55.738L409.278,114.002z M409.278,104.087h9.597V92.772
		h-9.597V104.087z M454.665,112.374c-16.366,0-27.192,11.647-27.192,29.23c0,17.576,10.828,29.744,26.888,29.744
		c16.351,0,27.077-11.746,27.077-29.647C481.436,124.216,470.612,112.374,454.665,112.374z M454.243,120.34
		c10.231,0,16.772,8.384,16.772,21.568c0,13.185-6.638,21.36-16.865,21.36c-10.23,0-16.258-8.369-16.258-21.972
		c0-12.925,6.241-21.008,16.351-21.008V120.34z M499.227,114.002h-9.097v55.709h9.614v-26.655c0-10.019,0.403-12.926,2.033-15.638
		c2.689-4.333,7.476-6.907,12.573-6.759c8.188,0,12.068,4.851,12.068,15.544v33.527h9.615v-31.794
		c0-9.297-0.616-13.186-2.764-16.759c-3.235-5.426-9.401-8.481-17.175-8.481c-7.774,0-12.568,2.342-16.87,7.962v-6.686
		L499.227,114.002L499.227,114.002z"/>
	<path d="M264.948,78.866h51.559v-9h-41.202V43.498h37.632v-8.597h-37.632V10.666h40.684V1.973h-51.104v76.875L264.948,78.866z
		 M373.104,78.866V1.991h-9.614v29.582c-3.389-6.305-10.12-10.083-17.272-9.694c-13.911,0-23.624,12.068-23.624,29.438
		s9.52,28.827,23.509,28.827c7.676,0,12.93-3.055,17.776-10.425v9.212L373.104,78.866z M347.851,29.587
		c9.092,0,15.541,8.791,15.541,21.262c0,12.069-6.851,21.166-15.947,21.166c-8.787,0-14.412-8.194-14.412-20.861
		C333.032,37.873,338.756,29.587,347.851,29.587z M420.329,78.866h9.275V23.138h-9.693v26.693c0,9.804-0.407,12.925-2.038,15.638
		c-2.75,4.25-7.508,6.768-12.568,6.643c-8.193,0-12.068-4.847-12.068-15.43V23.138h-9.615v31.798c0,9.305,0.615,13.18,2.765,16.773
		c3.231,5.406,9.401,8.481,17.175,8.481c7.768,0,14.008-3.074,16.768-7.981L420.329,78.866L420.329,78.866z"/>
	<path d="M41.642,228.4v3.847h8.597v0.76c0,5.847-3.848,9.87-9.454,9.87c-6.462,0-10.953-5.574-10.953-13.797
		c0-8.551,4.342-14.072,11.083-14.072c4.75,0,8.078,2.584,8.772,7.009h4.976c-0.759-6.463-6.333-10.907-13.749-10.907
		c-9.695,0-16.014,7.109-16.014,17.775c0,10.662,6.157,17.916,15.204,17.916c4.147,0.222,8.12-1.685,10.536-5.055v4.198h4.022
		v-17.597L41.642,228.4z"/>
	<path d="M96.443,245.996h22.846v-3.977H101.05v-11.717h16.721v-3.795h-16.656v-10.742h18.017v-3.848H96.508v34.026L96.443,245.996z
		 M134.122,226.117v-18.434h-2.292v7.077c-0.814-1.514-2.425-2.417-4.139-2.328c-3.328,0-5.653,2.898-5.653,7.046
		c0,4.151,2.278,6.896,5.62,6.896c1.778,0.042,3.426-0.916,4.269-2.485v2.2L134.122,226.117z M128.081,214.326
		c2.18,0,3.717,2.097,3.717,5.088c0,2.99-1.62,5.072-3.814,5.072c-2.2,0-3.458-1.972-3.458-4.989
		C124.525,216.475,125.9,214.326,128.081,214.326L128.081,214.326z"/>
	<path d="M40.961,261.549c-18.049,0-32.683-14.627-32.683-32.682s14.634-32.684,32.683-32.684c18.054,0,32.688,14.629,32.688,32.684
		l0,0C73.63,246.912,59.006,261.531,40.961,261.549z M40.961,200.637c-15.587,0.006-28.225,12.64-28.225,28.23
		c0,15.593,12.638,28.227,28.225,28.227c15.591,0,28.23-12.634,28.23-28.227C69.172,213.284,56.543,200.656,40.961,200.637z
		 M144.511,259H84.264v-60.266h60.247V259z M88.689,254.541h51.331v-51.349H88.689V254.541z"/>
</g>
</svg>
